# xmcd
#
# Track frame offsets: 
#        183
#        13975
#        23920
#        37470
#        51010
#        64138
#        75798
#        87733
#        100138
#        111968
#        124695
#        137233
#        147840
#        158835
#        174995
#        189813
#        207350
#        223593
#        242323
#        262475
#
# Disc length: 3833 seconds
#
# Revision: 2
# Processed by: cddbd v1.5.2PL0 Copyright (c) Steve Scherf et al.
# Submitted via: ExactAudioCopy v1.0b3
#
DISCID=200ef714
DTITLE=John Lee Hooker - The Boogie Man CD3 Boogie Chillun
DYEAR=1994
DGENRE=
TTITLE0=Time Is Marching
TTITLE1=Dimples
TTITLE2=Every Night
TTITLE3=Baby Lee
TTITLE4=I´m So Excited
TTITLE5=I Love Your Honey
TTITLE6=Mama, You Got A Daughter
TTITLE7=I´m In The Mood
TTITLE8=Boogie Chillum
TTITLE9=Hobo Blues
TTITLE10=Crawlin´ Kingsnake
TTITLE11=Dusty Road
TTITLE12=No Shoes
TTITLE13=My First Wife Left Me
TTITLE14=Moanin´ Blues
TTITLE15=My Own Fault
TTITLE16=Maudie
TTITLE17=Tupelo
TTITLE18=I Wanna Walk
TTITLE19=I Wish You Were Here
EXTD=
EXTT0=
EXTT1=
EXTT2=
EXTT3=
EXTT4=
EXTT5=
EXTT6=
EXTT7=
EXTT8=
EXTT9=
EXTT10=
EXTT11=
EXTT12=
EXTT13=
EXTT14=
EXTT15=
EXTT16=
EXTT17=
EXTT18=
EXTT19=
PLAYORDER=
